<svg width="169" height="146" viewBox="0 0 169 146" fill="none" xmlns="http://www.w3.org/2000/svg">
<path fill-rule="evenodd" clip-rule="evenodd" d="M67.6324 36.801C66.2034 34.3258 66.2034 31.2763 67.6324 28.8011L77.3325 11.9999C80.4117 6.66655 88.1096 6.66649 91.1889 11.9997L161.628 134C164.707 139.333 160.858 146 154.7 146L135.297 146C132.439 146 129.798 144.475 128.369 142L67.6324 36.801Z" fill="#5D6D81"/>
<path fill-rule="evenodd" clip-rule="evenodd" d="M66.2883 96.78L56.8157 113.188H88.2142C91.0723 113.188 93.7133 114.713 95.1424 117.188L108.307 139.99C109.847 142.656 107.923 145.99 104.843 145.99L13.8565 145.991C7.69808 145.991 3.84897 139.325 6.92813 133.991L45.0403 67.9774C46.4694 65.5022 49.1104 63.9774 51.9685 63.9774H59.7635C62.6261 63.9774 65.2705 65.5069 66.698 67.9883L79.812 90.7854C81.346 93.4521 79.4212 96.78 76.3448 96.78H66.2883Z" fill="#5D6D81"/>
</svg>
